<svg width="10" height="16" viewBox="0 0 10 16" fill="none" xmlns="http://www.w3.org/2000/svg">
<path d="M9.21162 15.0363C9.43188 14.8288 9.55561 14.5474 9.55561 14.2539C9.55561 13.9605 9.43188 13.6791 9.21162 13.4716L3.39597 7.99367L9.21163 2.51579C9.42564 2.30708 9.54406 2.02753 9.54138 1.73738C9.53871 1.44722 9.41515 1.16966 9.19731 0.964479C8.97948 0.759298 8.68481 0.642915 8.37676 0.640393C8.06871 0.637872 7.77193 0.749415 7.55035 0.950998L0.904048 7.21127C0.683792 7.4188 0.56006 7.70023 0.56006 7.99367C0.56006 8.28711 0.683792 8.56854 0.904048 8.77607L7.55034 15.0363C7.77067 15.2438 8.06945 15.3604 8.38098 15.3604C8.69252 15.3604 8.9913 15.2438 9.21162 15.0363Z" fill="white"/>
</svg>
