<svg width="10" height="16" viewBox="0 0 10 16" fill="none" xmlns="http://www.w3.org/2000/svg">
<path d="M0.788376 0.963658C0.56812 1.17118 0.444386 1.45261 0.444386 1.74605C0.444386 2.0395 0.56812 2.32092 0.788376 2.52845L6.60403 8.00633L0.788375 13.4842C0.574361 13.6929 0.455941 13.9725 0.458618 14.2626C0.461295 14.5528 0.584854 14.8303 0.802687 15.0355C1.02052 15.2407 1.31519 15.3571 1.62324 15.3596C1.93129 15.3621 2.22807 15.2506 2.44966 15.049L9.09595 8.78873C9.31621 8.5812 9.43994 8.29977 9.43994 8.00633C9.43994 7.71289 9.31621 7.43146 9.09595 7.22393L2.44966 0.963658C2.22933 0.756195 1.93055 0.639648 1.61902 0.639648C1.30748 0.639648 1.0087 0.756195 0.788376 0.963658Z" fill="white"/>
</svg>
