<svg width="80" height="80" viewBox="0 0 80 80" fill="none" xmlns="http://www.w3.org/2000/svg">
<circle cx="40" cy="40" r="40" fill="#252938"/>
<path d="M53.5631 46.4929C52.1559 43.6251 50.7488 40.7581 49.3416 37.892C47.891 34.9448 46.4506 31.9912 44.9923 29.0518C44.2247 27.5035 43.1067 26.4661 41.5141 26.1112C40.8456 25.9629 40.1536 25.9629 39.4852 26.1112C37.8925 26.4661 36.7771 27.5035 36.007 29.0518C34.5435 31.9912 33.1031 34.9448 31.6576 37.892C30.2505 40.7598 28.8433 43.6268 27.4362 46.4929C26.652 48.0907 26.9385 49.8093 28.1883 51.0235C29.3038 52.1051 30.9003 52.3027 32.4648 51.5435C33.1684 51.2029 33.8489 50.8064 34.5743 50.5178C36.4539 49.7206 38.4705 49.3101 40.5073 49.3101C42.5441 49.3101 44.5606 49.7206 46.4403 50.5178C47.1656 50.8064 47.8475 51.2029 48.5498 51.5435C50.1143 52.3001 51.7107 52.1025 52.8262 51.0235C54.0606 49.8093 54.3472 48.0907 53.5631 46.4929Z" fill="url(#paint0_linear_376_5175)"/>
<defs>
<linearGradient id="paint0_linear_376_5175" x1="27" y1="39" x2="54" y2="39" gradientUnits="userSpaceOnUse">
<stop stop-color="#D2B143"/>
<stop offset="1" stop-color="#FFE9A0"/>
</linearGradient>
</defs>
</svg>
