<svg width="26" height="26" viewBox="0 0 26 26" fill="none" xmlns="http://www.w3.org/2000/svg">
<g clip-path="url(#clip0_26_147)">
<path d="M13 26C20.1797 26 26 20.1797 26 13C26 5.8203 20.1797 0 13 0C5.8203 0 0 5.8203 0 13C0 20.1797 5.8203 26 13 26Z" fill="url(#paint0_linear_26_147)"/>
<path d="M10.1257 11.8191L13 8.94481L15.8756 11.8203L17.548 10.1479L13 5.60001L8.45342 10.1466L10.1258 11.819L10.1257 11.8191ZM5.59998 13L7.27243 11.3273L8.94478 12.9997L7.27232 14.6721L5.59998 13ZM10.1257 14.1811L13 17.0552L15.8756 14.1797L17.5488 15.8513L17.548 15.8521L13 20.4L8.45342 15.8534L8.45105 15.8511L10.1259 14.1809L10.1257 14.1811ZM17.0552 13.0007L18.7276 11.3283L20.4 13.0006L18.7276 14.6731L17.0552 13.0007Z" fill="#252938"/>
<path d="M14.5933 12.9992H14.594L12.9999 11.405L11.8217 12.5829L11.6863 12.7184L11.4071 12.9976L11.4049 12.9998L11.4071 13.002L12.9999 14.595L14.5941 13.0009L14.5949 13L14.5934 12.9992" fill="#252938"/>
</g>
<defs>
<linearGradient id="paint0_linear_26_147" x1="5.2" y1="-1.25085e-07" x2="18.5714" y2="26" gradientUnits="userSpaceOnUse">
<stop stop-color="#F2AA0D"/>
<stop offset="1" stop-color="#FAD96E"/>
</linearGradient>
<clipPath id="clip0_26_147">
<rect width="26" height="26" fill="white"/>
</clipPath>
</defs>
</svg>
