<svg width="26" height="26" viewBox="0 0 26 26" fill="none" xmlns="http://www.w3.org/2000/svg">
<path d="M25.6111 16.1449C25.6112 16.1449 25.6113 16.145 25.6112 16.1451C23.8746 23.1094 16.8198 27.3472 9.85392 25.6109C2.89123 23.8746 -1.34765 16.8205 0.389261 9.85663C2.12496 2.89151 9.17948 -1.34728 16.1434 0.389021C23.1088 2.12531 27.3473 9.18011 25.6109 16.1447C25.6109 16.1448 25.611 16.1449 25.6111 16.1449Z" fill="url(#paint0_linear_26_72)"/>
<path fill-rule="evenodd" clip-rule="evenodd" d="M18.3708 11.1495C18.6035 9.59447 17.4174 8.7585 15.7957 8.20087L16.3218 6.09433L15.0369 5.77475L14.5248 7.82579C14.1875 7.74178 13.8406 7.66253 13.496 7.58403L14.0118 5.51947L12.7281 5.19995L12.2017 7.30574C11.9222 7.24219 11.6478 7.17938 11.3815 7.11328L11.3829 7.1067L9.61158 6.66516L9.26988 8.03469C9.26988 8.03469 10.2229 8.25271 10.2028 8.26623C10.723 8.39588 10.8174 8.73952 10.8013 9.01198L10.202 11.4118C10.2379 11.4209 10.2844 11.434 10.3355 11.4545L10.2002 11.4209L9.35987 14.7826C9.29622 14.9404 9.13487 15.177 8.77124 15.0872C8.78404 15.1058 7.83762 14.8545 7.83762 14.8545L7.19999 16.3227L8.87185 16.7387C9.0606 16.7858 9.24705 16.8344 9.43144 16.8825C9.55085 16.9135 9.6694 16.9444 9.78716 16.9746L9.2556 19.1056L10.5386 19.4251L11.0654 17.3171C11.4155 17.4121 11.7558 17.4997 12.0886 17.5823L11.564 19.6804L12.8485 20L13.3801 17.8733C15.5703 18.2871 17.2177 18.1202 17.9102 16.143C18.4689 14.5507 17.8828 13.6322 16.7304 13.0329C17.5696 12.839 18.2018 12.2878 18.3704 11.1495H18.3708ZM15.4357 15.258C15.071 16.7196 12.7791 16.1148 11.7314 15.8384C11.6376 15.8136 11.5537 15.7915 11.4821 15.7737L12.1874 12.9507C12.2749 12.9726 12.3819 12.9965 12.503 13.0236C13.5869 13.2665 15.8082 13.7641 15.436 15.258H15.4357ZM12.7209 11.7145C13.5952 11.9474 15.5008 12.455 15.8327 11.1272C16.1721 9.76891 14.3191 9.35949 13.4141 9.15955C13.3124 9.13707 13.2226 9.11725 13.1493 9.09902L12.5099 11.6594C12.5703 11.6745 12.6414 11.6934 12.7209 11.7145Z" fill="white"/>
<defs>
<linearGradient id="paint0_linear_26_72" x1="14.4669" y1="36.4839" x2="-2.69349" y2="-15.2415" gradientUnits="userSpaceOnUse">
<stop stop-color="#FFC300"/>
<stop offset="1" stop-color="#FF541E"/>
</linearGradient>
</defs>
</svg>
