<svg width="32" height="32" viewBox="0 0 32 32" fill="none" xmlns="http://www.w3.org/2000/svg">
<path d="M16.0364 0H15.9636C7.14712 0 0 7.14713 0 15.9636V16.0364C0 24.8529 7.14712 32 15.9636 32H16.0364C24.8529 32 32 24.8529 32 16.0364V15.9636C32 7.14713 24.8529 0 16.0364 0Z" fill="#252938"/>
<path d="M20.0166 12.3016C19.2326 11.9418 18.3925 11.6769 17.5136 11.5253C17.4975 11.5223 17.4814 11.5295 17.4736 11.5444C17.3656 11.7365 17.2457 11.9877 17.1622 12.1846C16.2171 12.0432 15.2768 12.0432 14.3507 12.1846C14.2666 11.983 14.1425 11.7365 14.0339 11.5444C14.0256 11.5301 14.0095 11.5229 13.9939 11.5253C13.1157 11.6769 12.275 11.9418 11.491 12.3016C11.4844 12.3046 11.4784 12.3093 11.4743 12.3159C9.87999 14.6978 9.44323 17.0211 9.65743 19.3159C9.65862 19.3272 9.66459 19.338 9.67354 19.3445C10.7254 20.1172 11.7445 20.5862 12.7445 20.897C12.7607 20.9018 12.7774 20.8958 12.7875 20.8827C13.0238 20.5599 13.235 20.2192 13.4158 19.8606C13.4265 19.8397 13.4158 19.8147 13.3943 19.8063C13.0596 19.6792 12.7416 19.5247 12.4349 19.3493C12.4104 19.335 12.4086 19.3004 12.4307 19.2837C12.4951 19.2353 12.5596 19.1852 12.621 19.1345C12.6324 19.125 12.6479 19.1232 12.661 19.1291C14.6735 20.048 16.8525 20.048 18.8412 19.1291C18.8543 19.1226 18.8698 19.125 18.8812 19.1339C18.9426 19.1846 19.0071 19.2353 19.0721 19.2837C19.0942 19.3004 19.093 19.335 19.0685 19.3493C18.7624 19.5283 18.4438 19.6798 18.1085 19.8063C18.0864 19.8147 18.0769 19.8397 18.0876 19.8612C18.2726 20.2186 18.4832 20.5593 18.7153 20.8827C18.7248 20.8964 18.7421 20.9024 18.7582 20.8976C19.763 20.5868 20.7821 20.1178 21.834 19.3451C21.843 19.3386 21.8489 19.3278 21.8501 19.3171C22.1067 16.6643 21.4205 14.36 20.0321 12.3171C20.0285 12.3105 20.0232 12.3052 20.016 12.3022L20.0166 12.3016ZM13.7153 17.9185C13.1091 17.9185 12.6103 17.3624 12.6103 16.6793C12.6103 15.9961 13.1001 15.44 13.7153 15.44C14.3305 15.44 14.8305 16.0014 14.8203 16.6793C14.8203 17.3624 14.3305 17.9185 13.7153 17.9185ZM17.8018 17.9185C17.1956 17.9185 16.6968 17.3624 16.6968 16.6793C16.6968 15.9961 17.1866 15.44 17.8018 15.44C18.417 15.44 18.917 16.0014 18.9068 16.6793C18.9068 17.3624 18.4223 17.9185 17.8018 17.9185Z" fill="white"/>
</svg>
