<svg width="48" height="48" viewBox="0 0 48 48" fill="none" xmlns="http://www.w3.org/2000/svg">
<circle cx="24" cy="24" r="24" transform="rotate(-90 24 24)" fill="url(#paint0_linear_376_4335)"/>
<path d="M16.6581 26.307C16.8747 26.5369 17.1683 26.666 17.4745 26.666C17.7807 26.666 18.0744 26.5369 18.2909 26.307L24.007 20.2385L29.723 26.307C29.9408 26.5303 30.2325 26.6539 30.5353 26.6511C30.8381 26.6483 31.1277 26.5194 31.3418 26.2921C31.5559 26.0648 31.6773 25.7573 31.68 25.4359C31.6826 25.1144 31.5662 24.8047 31.3559 24.5735L24.8234 17.6382C24.6068 17.4084 24.3132 17.2793 24.007 17.2793C23.7008 17.2793 23.4071 17.4084 23.1906 17.6382L16.6581 24.5735C16.4416 24.8034 16.32 25.1152 16.32 25.4403C16.32 25.7653 16.4416 26.0771 16.6581 26.307Z" fill="#141721"/>
<defs>
<linearGradient id="paint0_linear_376_4335" x1="0" y1="24" x2="48" y2="24" gradientUnits="userSpaceOnUse">
<stop stop-color="#D2B143"/>
<stop offset="1" stop-color="#FFE9A0"/>
</linearGradient>
</defs>
</svg>
