<svg width="48" height="48" viewBox="0 0 48 48" fill="none" xmlns="http://www.w3.org/2000/svg">
<circle cx="24" cy="24" r="24" transform="rotate(90 24 24)" fill="#252938"/>
<path d="M31.3419 21.693C31.1253 21.4631 30.8317 21.334 30.5255 21.334C30.2193 21.334 29.9256 21.4631 29.7091 21.693L23.993 27.7615L18.277 21.693C18.0592 21.4697 17.7675 21.3461 17.4647 21.3489C17.1619 21.3517 16.8723 21.4806 16.6582 21.7079C16.4441 21.9352 16.3227 22.2427 16.32 22.5641C16.3174 22.8856 16.4338 23.1953 16.6441 23.4265L23.1766 30.3618C23.3932 30.5916 23.6868 30.7207 23.993 30.7207C24.2992 30.7207 24.5929 30.5916 24.8094 30.3618L31.3419 23.4265C31.5584 23.1966 31.68 22.8848 31.68 22.5597C31.68 22.2347 31.5584 21.9229 31.3419 21.693Z" fill="white"/>
</svg>
