<svg width="27" height="26" viewBox="0 0 27 26" fill="none" xmlns="http://www.w3.org/2000/svg">
<path d="M13.5 26C20.6797 26 26.5 20.1797 26.5 13C26.5 5.8203 20.6797 0 13.5 0C6.3203 0 0.5 5.8203 0.5 13C0.5 20.1797 6.3203 26 13.5 26Z" fill="url(#paint0_linear_26_134)"/>
<path fill-rule="evenodd" clip-rule="evenodd" d="M12.7853 16.6183L13.7147 13.4843L15.1628 13.0737L15.4654 12.0362L14.0389 12.4685L15.5519 7.32436V7.24222C15.5508 7.20929 15.5432 7.1769 15.5295 7.14691C15.5159 7.11692 15.4965 7.08991 15.4724 7.06742C15.4483 7.04494 15.42 7.02743 15.3892 7.01588C15.3583 7.00434 15.3255 6.99899 15.2925 7.00015H13.3689C13.2961 6.9979 13.2246 7.02009 13.1658 7.06318C13.1071 7.10626 13.0644 7.16777 13.0447 7.2379L11.2507 13.333L9.82421 13.7653L9.5 14.7595L10.9265 14.3273L9.6513 18.6717H17.2594C17.3324 18.6747 17.4042 18.6528 17.4632 18.6096C17.5221 18.5664 17.5646 18.5044 17.5836 18.4339L18.0159 16.9426V16.8604C18.0148 16.8275 18.0072 16.7951 17.9935 16.7651C17.9799 16.7351 17.9605 16.7081 17.9364 16.6856C17.9123 16.6631 17.884 16.6456 17.8531 16.6341C17.8223 16.6225 17.7895 16.6172 17.7565 16.6183H12.7853Z" fill="white"/>
<defs>
<linearGradient id="paint0_linear_26_134" x1="5.7" y1="1.19179e-06" x2="38.5" y2="55" gradientUnits="userSpaceOnUse">
<stop stop-color="#345D9D"/>
<stop offset="1" stop-color="#6B8CDB"/>
</linearGradient>
</defs>
</svg>
