<svg width="115" height="25" viewBox="0 0 115 25" fill="none" xmlns="http://www.w3.org/2000/svg">
<path d="M44.6695 19.4348L43.6486 16.3737H36.8697L35.8502 19.4348H32.2289L38.1815 2.42676H42.3367L48.3141 19.4348H44.6695ZM37.9388 13.2394H42.6043L40.2716 6.28941L37.9388 13.2394Z" fill="white"/>
<path d="M51.5367 5.82813C51.0298 5.82031 50.5459 5.61547 50.1875 5.25703C49.829 4.89859 49.6242 4.41467 49.6164 3.90782C49.6152 3.65434 49.6652 3.40325 49.7633 3.16953C49.8614 2.93581 50.0057 2.72429 50.1875 2.54764C50.3597 2.36222 50.5686 2.2146 50.8008 2.11415C51.0331 2.01369 51.2836 1.96261 51.5367 1.9641C51.7946 1.95998 52.0505 2.00976 52.2881 2.11024C52.5256 2.21072 52.7395 2.3597 52.9162 2.54764C53.098 2.72429 53.2423 2.93581 53.3404 3.16953C53.4385 3.40325 53.4885 3.65434 53.4873 3.90782C53.4893 4.15979 53.4397 4.40952 53.3415 4.64157C53.2433 4.87361 53.0985 5.08305 52.9162 5.25699C52.7377 5.44174 52.5232 5.58778 52.2858 5.68604C52.0485 5.78429 51.7935 5.83267 51.5367 5.82813ZM49.9819 19.4343V7.28488H53.1162V19.4343H49.9819Z" fill="white"/>
<path d="M59.1171 9.37511C59.3749 8.63824 59.8877 8.01784 60.5628 7.62589C61.2462 7.23378 62.0223 7.03226 62.8101 7.04235V10.5422C61.9125 10.4167 61.0002 10.6259 60.2469 11.1298C59.4937 11.632 59.1171 12.4661 59.1171 13.6323V19.4401H55.9828V7.29064H59.1171V9.37511Z" fill="white"/>
<path d="M73.8628 2.42676H76.997V19.4348H73.8628V18.0015C72.9385 19.1842 71.6261 19.7751 69.9256 19.7742C68.2895 19.7742 66.8925 19.1548 65.7346 17.916C64.5767 16.6772 63.9978 15.1597 63.9978 13.3636C63.9978 11.5647 64.5767 10.0472 65.7346 8.81117C66.8925 7.57512 68.2895 6.95572 69.9256 6.95296C71.6261 6.95296 72.9385 7.54433 73.8628 8.72704V2.42676ZM68.0909 15.8205C68.4066 16.1381 68.7841 16.3877 69.2 16.5538C69.6159 16.7199 70.0615 16.799 70.5092 16.7862C71.4813 16.7862 72.2832 16.4643 72.9151 15.8205C73.5469 15.1767 73.8628 14.355 73.8628 13.3553C73.8628 12.351 73.5469 11.5288 72.9151 10.8887C72.2832 10.2486 71.4813 9.92675 70.5092 9.92307C70.0615 9.91027 69.6159 9.98937 69.2 10.1555C68.7841 10.3215 68.4066 10.5711 68.0909 10.8887C67.4517 11.5325 67.1321 12.3547 67.1321 13.3553C67.1321 14.3559 67.4517 15.1776 68.0909 15.8205Z" fill="white"/>
<path d="M82.6766 9.37508C82.9338 8.63831 83.4462 8.01787 84.1209 7.62586C84.8049 7.23408 85.5813 7.03259 86.3695 7.04233V10.5421C85.4727 10.415 84.5603 10.6222 83.8064 11.1243C83.0532 11.6264 82.6766 12.4606 82.6766 13.6268V19.4345H79.5423V7.28509H82.6766V9.37508Z" fill="white"/>
<path d="M98.4016 17.9152C97.1545 19.154 95.632 19.7734 93.8341 19.7734C92.0361 19.7734 90.5186 19.154 89.2816 17.9152C88.0419 16.6764 87.4221 15.1589 87.4221 13.3628C87.4221 11.5666 88.0419 10.0492 89.2816 8.81035C90.5205 7.57155 92.0379 6.95215 93.8341 6.95215C95.6302 6.95215 97.1527 7.57155 98.4016 8.81035C99.6487 10.051 100.273 11.5685 100.274 13.3628C100.275 15.1571 99.6505 16.6745 98.4016 17.9152ZM91.4889 15.7645C91.7934 16.0755 92.159 16.3201 92.5625 16.4832C92.9661 16.6463 93.399 16.7243 93.8341 16.7122C94.2709 16.7236 94.7054 16.6454 95.1109 16.4824C95.5164 16.3194 95.8842 16.0751 96.1916 15.7645C96.8234 15.1327 97.1389 14.3312 97.138 13.36C97.137 12.3888 96.8216 11.5869 96.1916 10.9541C95.8842 10.6436 95.5164 10.3993 95.1109 10.2363C94.7054 10.0733 94.2709 9.99506 93.8341 10.0064C93.399 9.99439 92.9661 10.0723 92.5625 10.2354C92.159 10.3985 91.7934 10.6432 91.4889 10.9541C90.8653 11.5859 90.5535 12.3879 90.5535 13.36C90.5535 14.3321 90.8653 15.1336 91.4889 15.7645Z" fill="white"/>
<path d="M109.072 6.94531C110.708 6.94531 112.105 7.56471 113.263 8.80352C114.421 10.0423 115 11.5598 115 13.3559C115 15.153 114.421 16.6704 113.263 17.9083C112.105 19.1462 110.708 19.7657 109.072 19.7666C107.372 19.7666 106.059 19.1757 105.135 17.9939V24.2859H102.001V7.28467H105.135V8.71939C106.059 7.5376 107.372 6.94623 109.072 6.94531ZM106.083 15.8198C106.715 16.4635 107.517 16.7854 108.489 16.7854C108.936 16.7982 109.381 16.7191 109.797 16.553C110.213 16.3869 110.59 16.1374 110.906 15.8198C111.549 15.1806 111.871 14.3588 111.871 13.3545C111.871 12.3503 111.549 11.5281 110.906 10.888C110.59 10.5704 110.213 10.3208 109.797 10.1547C109.381 9.98865 108.936 9.90955 108.489 9.92232C107.517 9.92232 106.715 10.2442 106.083 10.888C105.451 11.5318 105.135 12.3539 105.135 13.3545C105.135 14.3625 105.451 15.1843 106.083 15.8198Z" fill="white"/>
<path d="M25.6098 19.6449C24.2532 16.9103 22.8965 14.1766 21.5399 11.4437C20.1413 8.63355 18.7526 5.81718 17.3466 3.01444C16.6066 1.53808 15.5287 0.548895 13.9932 0.210485C13.3488 0.0691614 12.6816 0.0691614 12.0371 0.210485C10.5016 0.548895 9.4262 1.53808 8.68374 3.01444C7.27282 5.81718 5.88411 8.63355 4.49046 11.4437C3.13381 14.1783 1.77716 16.912 0.420509 19.6449C-0.335516 21.1684 -0.0592667 22.8071 1.14569 23.9649C2.22114 24.9963 3.76034 25.1847 5.26869 24.4608C5.94701 24.136 6.60317 23.7579 7.30246 23.4827C9.11467 22.7225 11.0589 22.3311 13.0226 22.3311C14.9863 22.3311 16.9305 22.7225 18.7427 23.4827C19.442 23.7579 20.0994 24.136 20.7765 24.4608C22.2848 25.1822 23.824 24.9938 24.8994 23.9649C26.0896 22.8071 26.3659 21.1684 25.6098 19.6449Z" fill="url(#paint0_linear_2005_714)"/>
<defs>
<linearGradient id="paint0_linear_2005_714" x1="0" y1="12.5003" x2="26.0311" y2="12.5003" gradientUnits="userSpaceOnUse">
<stop stop-color="#D2B143"/>
<stop offset="1" stop-color="#FFE9A0"/>
</linearGradient>
</defs>
</svg>
