<svg width="115" height="27" viewBox="0 0 115 27" fill="none" xmlns="http://www.w3.org/2000/svg">
<g clip-path="url(#clip0_26_13)">
<path d="M48.7518 19.3501L47.8047 16.5102H41.5156L40.5698 19.3501H37.2103L42.7327 3.57108H46.5876L52.1331 19.3501H48.7518ZM42.5075 13.6024H46.8359L44.6717 7.1546L42.5075 13.6024Z" fill="white"/>
<path d="M55.1228 6.72716C54.6525 6.7199 54.2036 6.52986 53.8711 6.19732C53.5385 5.86478 53.3485 5.41584 53.3413 4.94561C53.3402 4.71045 53.3865 4.4775 53.4775 4.26067C53.5686 4.04385 53.7025 3.84761 53.8711 3.68372C54.0309 3.5117 54.2246 3.37475 54.4401 3.28155C54.6556 3.18836 54.888 3.14097 55.1228 3.14235C55.362 3.13853 55.5995 3.18471 55.8199 3.27793C56.0402 3.37115 56.2387 3.50937 56.4026 3.68372C56.5712 3.84761 56.7051 4.04385 56.7962 4.26067C56.8872 4.4775 56.9336 4.71045 56.9325 4.94561C56.9343 5.17938 56.8883 5.41106 56.7972 5.62634C56.706 5.84161 56.5717 6.03591 56.4026 6.19729C56.237 6.36869 56.038 6.50418 55.8178 6.59533C55.5976 6.68648 55.361 6.73137 55.1228 6.72716ZM53.6804 19.3501V8.07863H56.5882V19.3501H53.6804Z" fill="white"/>
<path d="M62.1554 10.0176C62.3946 9.33396 62.8703 8.75839 63.4967 8.39477C64.1307 8.03099 64.8507 7.84404 65.5815 7.8534V11.1003C64.7488 10.9839 63.9024 11.1779 63.2036 11.6455C62.5048 12.1114 62.1554 12.8852 62.1554 13.9671V19.3552H59.2476V8.08375H62.1554V10.0176Z" fill="white"/>
<path d="M75.8355 3.57108H78.7433V19.3501H75.8355V18.0204C74.978 19.1176 73.7605 19.6658 72.1829 19.6649C70.665 19.6649 69.3689 19.0903 68.2947 17.941C67.2205 16.7917 66.6834 15.3839 66.6834 13.7176C66.6834 12.0487 67.2205 10.6409 68.2947 9.49413C69.3689 8.3474 70.665 7.77276 72.1829 7.7702C73.7605 7.7702 74.978 8.31884 75.8355 9.41608V3.57108ZM70.4807 15.9969C70.7736 16.2916 71.1238 16.5231 71.5097 16.6772C71.8955 16.8313 72.3089 16.9047 72.7243 16.8928C73.6261 16.8928 74.3701 16.5942 74.9563 15.9969C75.5424 15.3997 75.8355 14.6373 75.8355 13.7099C75.8355 12.7782 75.5424 12.0154 74.9563 11.4216C74.3701 10.8277 73.6261 10.5291 72.7243 10.5257C72.3089 10.5138 71.8955 10.5872 71.5097 10.7413C71.1238 10.8954 70.7736 11.1269 70.4807 11.4216C69.8877 12.0188 69.5912 12.7816 69.5912 13.7099C69.5912 14.6382 69.8877 15.4005 70.4807 15.9969Z" fill="white"/>
<path d="M84.0123 10.0176C84.251 9.33406 84.7263 8.75846 85.3523 8.39477C85.9869 8.0313 86.7072 7.84438 87.4384 7.85341V11.1003C86.6064 10.9824 85.76 11.1746 85.0605 11.6404C84.3617 12.1063 84.0123 12.8801 84.0123 13.962V19.3501H81.1046V8.07863H84.0123V10.0176Z" fill="white"/>
<path d="M98.6011 17.941C97.4441 19.0903 96.0317 19.6649 94.3636 19.6649C92.6956 19.6649 91.2878 19.0903 90.1402 17.941C88.99 16.7917 88.415 15.3839 88.415 13.7176C88.415 12.0512 88.99 10.6434 90.1402 9.49413C91.2895 8.34484 92.6973 7.7702 94.3636 7.7702C96.03 7.7702 97.4424 8.34484 98.6011 9.49413C99.7581 10.6451 100.337 12.0529 100.338 13.7176C100.339 15.3822 99.7598 16.79 98.6011 17.941ZM92.1879 15.9458C92.4705 16.2342 92.8096 16.4612 93.184 16.6125C93.5584 16.7638 93.96 16.8362 94.3636 16.825C94.7689 16.8355 95.172 16.763 95.5482 16.6117C95.9244 16.4605 96.2656 16.2339 96.5508 15.9458C97.137 15.3596 97.4296 14.616 97.4288 13.715C97.4279 12.814 97.1353 12.07 96.5508 11.483C96.2656 11.1949 95.9244 10.9682 95.5482 10.817C95.172 10.6658 94.7689 10.5932 94.3636 10.6038C93.96 10.5926 93.5584 10.6649 93.184 10.8162C92.8096 10.9675 92.4705 11.1945 92.1879 11.483C91.6094 12.0691 91.3202 12.8131 91.3202 13.715C91.3202 14.6169 91.6094 15.3605 92.1879 15.9458Z" fill="white"/>
<path d="M108.501 7.7638C110.018 7.7638 111.314 8.33844 112.389 9.48773C113.463 10.637 114 12.0448 114 13.7112C114 15.3784 113.463 16.7862 112.389 17.9346C111.314 19.083 110.018 19.6577 108.501 19.6586C106.923 19.6586 105.705 19.1103 104.848 18.014V23.8513H101.94V8.07863H104.848V9.40968C105.705 8.31329 106.923 7.76465 108.501 7.7638ZM105.727 15.997C106.313 16.5942 107.057 16.8928 107.959 16.8928C108.374 16.9047 108.787 16.8313 109.173 16.6772C109.559 16.5231 109.909 16.2916 110.201 15.997C110.799 15.404 111.097 14.6416 111.097 13.7099C111.097 12.7782 110.799 12.0154 110.201 11.4216C109.909 11.1269 109.559 10.8954 109.173 10.7413C108.787 10.5872 108.374 10.5138 107.959 10.5257C107.057 10.5257 106.313 10.8243 105.727 11.4216C105.141 12.0188 104.848 12.7816 104.848 13.7099C104.848 14.645 105.141 15.4074 105.727 15.997Z" fill="white"/>
<path d="M26.5911 20.8769C25.1833 18.0536 23.7755 15.2312 22.3677 12.4096C20.9164 9.50823 19.4753 6.60046 18.0163 3.70676C17.2484 2.18249 16.1298 1.1612 14.5364 0.811806C13.8677 0.665896 13.1753 0.665896 12.5066 0.811806C10.9132 1.1612 9.79718 2.18249 9.02672 3.70676C7.5626 6.60046 6.12151 9.50823 4.6753 12.4096C3.26749 15.2329 1.85968 18.0553 0.45187 20.8769C-0.332665 22.4498 -0.0459988 24.1418 1.20439 25.3372C2.3204 26.402 3.91765 26.5965 5.48288 25.8491C6.18679 25.5138 6.86769 25.1234 7.59335 24.8393C9.47391 24.0545 11.4914 23.6503 13.5292 23.6503C15.5669 23.6503 17.5845 24.0545 19.465 24.8393C20.1907 25.1234 20.8729 25.5138 21.5755 25.8491C23.1407 26.5939 24.7379 26.3994 25.8539 25.3372C27.0889 24.1418 27.3757 22.4498 26.5911 20.8769Z" fill="url(#paint0_linear_26_13)"/>
<path d="M26.5911 20.8769C25.1833 18.0536 23.7755 15.2312 22.3677 12.4096C20.9164 9.50823 19.4753 6.60046 18.0163 3.70676C17.2484 2.18249 16.1298 1.1612 14.5364 0.811806C13.8677 0.665896 13.1753 0.665896 12.5066 0.811806C10.9132 1.1612 9.79718 2.18249 9.02672 3.70676C7.5626 6.60046 6.12151 9.50823 4.6753 12.4096C3.26749 15.2329 1.85968 18.0553 0.45187 20.8769C-0.332665 22.4498 -0.0459988 24.1418 1.20439 25.3372C2.3204 26.402 3.91765 26.5965 5.48288 25.8491C6.18679 25.5138 6.86769 25.1234 7.59335 24.8393C9.47391 24.0545 11.4914 23.6503 13.5292 23.6503C15.5669 23.6503 17.5845 24.0545 19.465 24.8393C20.1907 25.1234 20.8729 25.5138 21.5755 25.8491C23.1407 26.5939 24.7379 26.3994 25.8539 25.3372C27.0889 24.1418 27.3757 22.4498 26.5911 20.8769Z" fill="url(#paint1_linear_26_13)"/>
</g>
<defs>
<linearGradient id="paint0_linear_26_13" x1="4.62764" y1="13.5" x2="23.8497" y2="13.5" gradientUnits="userSpaceOnUse">
<stop offset="0.1" stop-color="#0085FF"/>
<stop offset="0.92" stop-color="#C5FFB7"/>
</linearGradient>
<linearGradient id="paint1_linear_26_13" x1="-1.00001" y1="13.5" x2="24" y2="14" gradientUnits="userSpaceOnUse">
<stop stop-color="#00B4FF"/>
<stop offset="1" stop-color="#8835DC"/>
</linearGradient>
<clipPath id="clip0_26_13">
<rect width="115" height="25.5966" fill="white" transform="translate(0 0.701714)"/>
</clipPath>
</defs>
</svg>
