<svg width="20" height="21" viewBox="0 0 20 21" fill="none" xmlns="http://www.w3.org/2000/svg">
<path d="M19.3101 10.5001C19.3101 5.26788 15.1774 1.02637 10.0794 1.02637C4.98136 1.02637 0.848602 5.26788 0.848602 10.5001C0.848602 15.7322 4.98136 19.9737 10.0794 19.9737C15.1774 19.9737 19.3101 15.7322 19.3101 10.5001Z" fill="#00B27C"/>
<path d="M6.32136 10.1028L6.50544 10.2719L6.32136 10.1028ZM6.32136 10.1028C6.62533 9.772 7.14059 9.77203 7.44458 10.1028L7.44461 10.1028L9.38308 12.2122L13.4645 7.77082L13.4645 7.77081V7.77081C13.7685 7.43999 14.2838 7.44002 14.5878 7.7708V7.7708C14.8647 8.07212 14.8647 8.5407 14.5878 8.84204L14.5878 8.84205L9.56715 14.3055L9.38308 14.5058L9.199 14.3055L6.32136 11.1741C6.32136 11.1741 6.32136 11.1741 6.32136 11.1741C6.04441 10.8727 6.04441 10.4041 6.32136 10.1028Z" fill="#141721" stroke="#141721" stroke-width="0.5"/>
</svg>
