<svg width="20" height="20" viewBox="0 0 20 20" fill="none" xmlns="http://www.w3.org/2000/svg">
<g clip-path="url(#clip0_376_4193)">
<path d="M19.3101 9.99907C19.3101 4.7669 15.1774 0.525391 10.0794 0.525391C4.98136 0.525391 0.848602 4.7669 0.848602 9.99907C0.848602 15.2312 4.98136 19.4728 10.0794 19.4728C15.1774 19.4728 19.3101 15.2312 19.3101 9.99907Z" fill="url(#paint0_linear_376_4193)"/>
<path d="M6.32136 9.6035L6.50544 9.77267L6.32136 9.6035ZM6.32136 9.6035C6.62533 9.27274 7.14059 9.27276 7.44458 9.60348L7.44461 9.60351L9.38308 11.713L13.4645 7.27156L13.4645 7.27154V7.27154C13.7685 6.94072 14.2838 6.94075 14.5878 7.27153V7.27153C14.8647 7.57285 14.8647 8.04143 14.5878 8.34277L14.5878 8.34278L9.56715 13.8062L9.38308 14.0065L9.199 13.8062L6.32136 10.6748C6.32136 10.6748 6.32136 10.6748 6.32136 10.6748C6.04441 10.3734 6.04441 9.90485 6.32136 9.6035Z" fill="#141721" stroke="#141721" stroke-width="0.5"/>
</g>
<defs>
<linearGradient id="paint0_linear_376_4193" x1="0.848602" y1="9.99907" x2="19.3101" y2="9.99907" gradientUnits="userSpaceOnUse">
<stop stop-color="#D2B143"/>
<stop offset="1" stop-color="#FFE9A0"/>
</linearGradient>
<clipPath id="clip0_376_4193">
<rect width="20" height="20" fill="white"/>
</clipPath>
</defs>
</svg>
