<svg width="27" height="26" viewBox="0 0 27 26" fill="none" xmlns="http://www.w3.org/2000/svg">
<path d="M13.5 26C20.6797 26 26.5 20.1797 26.5 13C26.5 5.8203 20.6797 0 13.5 0C6.3203 0 0.5 5.8203 0.5 13C0.5 20.1797 6.3203 26 13.5 26Z" fill="url(#paint0_linear_26_135)"/>
<g clip-path="url(#clip0_26_135)">
<path d="M9.10912 15.9376C9.19119 15.8576 9.30404 15.8108 9.42373 15.8108H20.2777C20.4761 15.8108 20.5753 16.0444 20.435 16.1812L18.2909 18.2732C18.2088 18.3533 18.096 18.4 17.9763 18.4H7.1223C6.92396 18.4 6.82479 18.1664 6.96499 18.0296L9.10912 15.9376Z" fill="url(#paint1_linear_26_135)"/>
<path d="M9.1093 8.12676C9.1948 8.04668 9.30764 7.99997 9.42391 7.99997H20.2779C20.4763 7.99997 20.5754 8.23353 20.4352 8.37033L18.2911 10.4623C18.209 10.5424 18.0962 10.5891 17.9765 10.5891H7.12248C6.92414 10.5891 6.82497 10.3556 6.96518 10.2188L9.1093 8.12676Z" fill="url(#paint2_linear_26_135)"/>
<path d="M18.2909 12.0072C18.2088 11.9271 18.096 11.8804 17.9763 11.8804H7.1223C6.92396 11.8804 6.82479 12.1139 6.96499 12.2507L9.10912 14.3428C9.19119 14.4228 9.30404 14.4695 9.42373 14.4695H20.2777C20.4761 14.4695 20.5753 14.236 20.435 14.0992L18.2909 12.0072Z" fill="url(#paint3_linear_26_135)"/>
</g>
<defs>
<linearGradient id="paint0_linear_26_135" x1="9.78572" y1="-1.4153e-07" x2="22.1" y2="34" gradientUnits="userSpaceOnUse">
<stop stop-color="#161616"/>
<stop offset="1" stop-color="#4C5966"/>
</linearGradient>
<linearGradient id="paint1_linear_26_135" x1="19.2409" y1="6.75029" x2="12.0154" y2="20.9347" gradientUnits="userSpaceOnUse">
<stop stop-color="#00FFA3"/>
<stop offset="1" stop-color="#DC1FFF"/>
</linearGradient>
<linearGradient id="paint2_linear_26_135" x1="15.9565" y1="5.07712" x2="8.73104" y2="19.2615" gradientUnits="userSpaceOnUse">
<stop stop-color="#00FFA3"/>
<stop offset="1" stop-color="#DC1FFF"/>
</linearGradient>
<linearGradient id="paint3_linear_26_135" x1="17.5881" y1="5.90838" x2="10.3627" y2="20.0927" gradientUnits="userSpaceOnUse">
<stop stop-color="#00FFA3"/>
<stop offset="1" stop-color="#DC1FFF"/>
</linearGradient>
<clipPath id="clip0_26_135">
<rect width="13.6" height="10.4" fill="white" transform="translate(6.89999 7.99997)"/>
</clipPath>
</defs>
</svg>
