<svg width="32" height="32" viewBox="0 0 32 32" fill="none" xmlns="http://www.w3.org/2000/svg">
<path d="M16.0364 0H15.9636C7.14712 0 0 7.14713 0 15.9636V16.0364C0 24.8529 7.14712 32 15.9636 32H16.0364C24.8529 32 32 24.8529 32 16.0364V15.9636C32 7.14713 24.8529 0 16.0364 0Z" fill="#252938"/>
<path d="M9.16118 15.8101C9.18941 15.7959 9.21767 15.7824 9.2452 15.7696C9.72384 15.5464 10.2088 15.3375 10.6931 15.1285C10.7193 15.1285 10.763 15.098 10.7877 15.088C10.8251 15.0717 10.8626 15.056 10.9 15.0397L11.1153 14.9466C11.2593 14.8848 11.4026 14.8229 11.5466 14.7611C11.834 14.6375 12.1213 14.5138 12.4086 14.3894C12.9833 14.1421 13.5587 13.8941 14.1333 13.6468C14.708 13.3994 15.2833 13.1514 15.858 12.9041C16.4326 12.6568 17.008 12.4088 17.5827 12.1614C18.1573 11.9141 18.7327 11.6661 19.3073 11.4188C19.4351 11.3634 19.5735 11.2809 19.7104 11.2568C19.8255 11.2361 19.9378 11.1963 20.0535 11.1743C20.2731 11.1324 20.5152 11.1153 20.7256 11.207C20.7983 11.239 20.8654 11.2838 20.9212 11.3399C21.188 11.6057 21.1506 12.0421 21.0941 12.4159C20.7009 15.0212 20.3077 17.6273 19.9138 20.2326C19.8601 20.5901 19.7867 20.9824 19.5064 21.2084C19.2692 21.3996 18.9318 21.4209 18.6388 21.3399C18.3458 21.2581 18.0874 21.0869 17.834 20.9184C16.7828 20.2177 15.7309 19.517 14.6797 18.8162C14.4298 18.6499 14.1517 18.4325 14.1545 18.1304C14.1559 17.9485 14.2639 17.7865 14.374 17.6422C15.2876 16.4426 16.6056 15.6182 17.5862 14.474C17.7246 14.3127 17.8333 14.0213 17.6434 13.9282C17.5304 13.8728 17.4005 13.9481 17.2974 14.0199C16.0013 14.926 14.7059 15.8328 13.4097 16.7389C12.9868 17.0346 12.5435 17.3387 12.0338 17.4112C11.5777 17.4766 11.1188 17.3487 10.6776 17.2179C10.3077 17.1085 9.93845 16.9962 9.57064 16.8804C9.37509 16.8192 9.17318 16.7531 9.0221 16.6146C8.87103 16.476 8.7842 16.2429 8.87527 16.0581C8.93246 15.9423 9.0433 15.8691 9.15978 15.8094L9.16118 15.8101Z" fill="#FEFFFC"/>
</svg>
