<svg width="32" height="32" viewBox="0 0 32 32" fill="none" xmlns="http://www.w3.org/2000/svg">
<path d="M31.9978 16.0006C31.9978 24.0816 26.0078 30.7623 18.2265 31.8464C17.4989 31.9473 16.7545 32 15.9989 32C15.1267 32 14.2702 31.9305 13.4361 31.796C5.81838 30.5695 0 23.9638 0 16.0006C0 7.16393 7.16368 0 16 0C24.8363 0 32 7.16393 32 16.0006H31.9978Z" fill="#252938"/>
<path d="M9.63838 10.3749L14.3869 16.7238L9.6088 21.886H10.6845L14.8682 17.3667L18.2481 21.886H21.908L16.8925 15.1799L21.3403 10.3749H20.2646L16.4121 14.5371L13.299 10.3749H9.63909H9.63838ZM11.2198 11.1671H12.9008L20.3252 21.0938H18.6442L11.2198 11.1671Z" fill="white"/>
</svg>
